<mxfile host="app.diagrams.net" modified="2024-05-07T08:45:25.503Z" agent="Mozilla/5.0 (Windows NT 10.0; Win64; x64) AppleWebKit/537.36 (KHTML, like Gecko) Chrome/124.0.0.0 Safari/537.36" etag="W8YnvyyZ3UTj-SAl-NHa" version="24.3.1" type="device">
  <diagram name="Page-1" id="mAyG2AswFGp10LJD8Wdj">
    <mxGraphModel dx="2074" dy="1132" grid="1" gridSize="10" guides="1" tooltips="1" connect="1" arrows="1" fold="1" page="1" pageScale="1" pageWidth="850" pageHeight="1100" math="0" shadow="0">
      <root>
        <mxCell id="0" />
        <mxCell id="1" parent="0" />
        <mxCell id="jFWHGdrOQSLQcmm92h7n-1" value="&lt;h1 style=&quot;margin-top: 0px;&quot;&gt;Dimensional model&lt;/h1&gt;&lt;p&gt;&lt;span style=&quot;font-size: 17px;&quot;&gt;Dimensions&lt;/span&gt;&lt;/p&gt;&lt;p&gt;&lt;/p&gt;&lt;ul&gt;&lt;li&gt;&lt;span style=&quot;font-size: 17px;&quot;&gt;Date&lt;/span&gt;&lt;/li&gt;&lt;li&gt;&lt;span style=&quot;font-size: 17px;&quot;&gt;Product&lt;/span&gt;&lt;/li&gt;&lt;li&gt;&lt;span style=&quot;font-size: 17px;&quot;&gt;Payment method&lt;/span&gt;&lt;/li&gt;&lt;li&gt;&lt;span style=&quot;font-size: 17px;&quot;&gt;Discount&lt;/span&gt;&lt;/li&gt;&lt;li&gt;&lt;span style=&quot;font-size: 17px;&quot;&gt;Location&lt;br&gt;&lt;br&gt;&lt;/span&gt;&lt;/li&gt;&lt;/ul&gt;&lt;div&gt;&lt;br&gt;&lt;/div&gt;&lt;p&gt;&lt;/p&gt;" style="text;html=1;whiteSpace=wrap;overflow=hidden;rounded=0;fillColor=default;strokeColor=default;" vertex="1" parent="1">
          <mxGeometry width="240" height="250" as="geometry" />
        </mxCell>
        <mxCell id="jFWHGdrOQSLQcmm92h7n-2" value="&lt;h1 style=&quot;margin-top: 0px;&quot;&gt;Date&lt;/h1&gt;&lt;p&gt;&lt;font style=&quot;font-size: 17px;&quot;&gt;Rows&lt;/font&gt;&lt;/p&gt;&lt;p&gt;&lt;/p&gt;&lt;ul&gt;&lt;li&gt;&lt;font style=&quot;font-size: 17px;&quot;&gt;Id&lt;/font&gt;&lt;/li&gt;&lt;li&gt;&lt;font style=&quot;font-size: 17px;&quot;&gt;Date&lt;/font&gt;&lt;/li&gt;&lt;li&gt;&lt;font style=&quot;font-size: 17px;&quot;&gt;Full date description&lt;/font&gt;&lt;/li&gt;&lt;li&gt;&lt;font style=&quot;font-size: 17px;&quot;&gt;Day of Week&lt;/font&gt;&lt;/li&gt;&lt;li&gt;&lt;font style=&quot;font-size: 17px;&quot;&gt;Day Number in Calendar Month&lt;/font&gt;&lt;/li&gt;&lt;li&gt;&lt;font style=&quot;font-size: 17px;&quot;&gt;Day Number in Calendar Year&lt;/font&gt;&lt;/li&gt;&lt;li&gt;&lt;font style=&quot;font-size: 17px;&quot;&gt;Last Day in Month Indicator&lt;/font&gt;&lt;/li&gt;&lt;li&gt;&lt;font style=&quot;font-size: 17px;&quot;&gt;Calendar Week Ending Date&lt;/font&gt;&lt;/li&gt;&lt;li&gt;&lt;font style=&quot;font-size: 17px;&quot;&gt;Calendar Week Number in Year&lt;/font&gt;&lt;/li&gt;&lt;li&gt;&lt;font style=&quot;font-size: 17px;&quot;&gt;Calendar Month Name&lt;/font&gt;&lt;/li&gt;&lt;li&gt;&lt;font style=&quot;font-size: 17px;&quot;&gt;Calendar Month Number in Year&lt;/font&gt;&lt;/li&gt;&lt;li&gt;&lt;font style=&quot;font-size: 17px;&quot;&gt;Calendar Year-Month(YYYY-MM)&lt;/font&gt;&lt;/li&gt;&lt;li&gt;&lt;font style=&quot;font-size: 17px;&quot;&gt;Calendar Quarter&lt;/font&gt;&lt;/li&gt;&lt;li&gt;&lt;font style=&quot;font-size: 17px;&quot;&gt;Calendar Year&lt;/font&gt;&lt;/li&gt;&lt;li&gt;&lt;font style=&quot;font-size: 17px;&quot;&gt;Holiday Indicator&lt;/font&gt;&lt;/li&gt;&lt;li&gt;&lt;font style=&quot;font-size: 17px;&quot;&gt;Weekday Indicator&lt;/font&gt;&lt;/li&gt;&lt;/ul&gt;&lt;p&gt;&lt;/p&gt;&lt;p&gt;&lt;font style=&quot;font-size: 17px;&quot;&gt;&lt;br&gt;&lt;/font&gt;&lt;/p&gt;" style="text;html=1;whiteSpace=wrap;overflow=hidden;rounded=0;fillColor=default;strokeColor=default;" vertex="1" parent="1">
          <mxGeometry y="280" width="320" height="770" as="geometry" />
        </mxCell>
        <mxCell id="jFWHGdrOQSLQcmm92h7n-3" value="&lt;h1 style=&quot;margin-top: 0px;&quot;&gt;Product&lt;/h1&gt;&lt;p&gt;&lt;span style=&quot;font-size: 17px;&quot;&gt;Rows&lt;/span&gt;&lt;br&gt;&lt;/p&gt;&lt;p&gt;&lt;/p&gt;&lt;ul&gt;&lt;li&gt;&lt;span style=&quot;font-size: 17px;&quot;&gt;Id&lt;br&gt;Product SKU number&lt;/span&gt;&lt;/li&gt;&lt;li&gt;&lt;span style=&quot;font-size: 17px;&quot;&gt;Product MPN number&lt;/span&gt;&lt;/li&gt;&lt;li&gt;&lt;span style=&quot;font-size: 17px;&quot;&gt;Product name&lt;/span&gt;&lt;/li&gt;&lt;li&gt;&lt;span style=&quot;font-size: 17px;&quot;&gt;Product description&lt;/span&gt;&lt;/li&gt;&lt;li&gt;&lt;span style=&quot;font-size: 17px;&quot;&gt;Product category&lt;/span&gt;&lt;/li&gt;&lt;li&gt;&lt;span style=&quot;font-size: 17px;&quot;&gt;Product Type category&lt;/span&gt;&lt;/li&gt;&lt;li&gt;&lt;span style=&quot;font-size: 17px;&quot;&gt;Product Main category&lt;/span&gt;&lt;/li&gt;&lt;li&gt;&lt;span style=&quot;font-size: 17px;&quot;&gt;Product Producer name&lt;/span&gt;&lt;/li&gt;&lt;/ul&gt;&lt;p&gt;&lt;/p&gt;" style="text;html=1;whiteSpace=wrap;overflow=hidden;rounded=0;fillColor=default;strokeColor=default;" vertex="1" parent="1">
          <mxGeometry x="350" y="280" width="330" height="470" as="geometry" />
        </mxCell>
        <mxCell id="jFWHGdrOQSLQcmm92h7n-4" value="&lt;h1 style=&quot;margin-top: 0px;&quot;&gt;Payment method&lt;/h1&gt;&lt;p&gt;&lt;span style=&quot;font-size: 17px;&quot;&gt;Rows&lt;/span&gt;&lt;br&gt;&lt;/p&gt;&lt;p&gt;&lt;/p&gt;&lt;ul&gt;&lt;li&gt;&lt;span style=&quot;font-size: 17px;&quot;&gt;Id&lt;/span&gt;&lt;/li&gt;&lt;li&gt;&lt;span style=&quot;font-size: 17px;&quot;&gt;Payment Method Description&lt;/span&gt;&lt;/li&gt;&lt;/ul&gt;&lt;p&gt;&lt;/p&gt;" style="text;html=1;whiteSpace=wrap;overflow=hidden;rounded=0;fillColor=default;strokeColor=default;" vertex="1" parent="1">
          <mxGeometry x="710" y="280" width="280" height="240" as="geometry" />
        </mxCell>
        <mxCell id="jFWHGdrOQSLQcmm92h7n-5" value="&lt;h1 style=&quot;margin-top: 0px;&quot;&gt;Discount&lt;/h1&gt;&lt;p&gt;&lt;span style=&quot;font-size: 17px;&quot;&gt;Rows&lt;/span&gt;&lt;br&gt;&lt;/p&gt;&lt;p&gt;&lt;/p&gt;&lt;ul&gt;&lt;li&gt;&lt;span style=&quot;font-size: 17px;&quot;&gt;Id&lt;/span&gt;&lt;/li&gt;&lt;li&gt;&lt;span style=&quot;font-size: 17px;&quot;&gt;Discount Name&lt;/span&gt;&lt;/li&gt;&lt;li&gt;&lt;span style=&quot;font-size: 17px;&quot;&gt;Discount Type&lt;/span&gt;&lt;/li&gt;&lt;li&gt;&lt;span style=&quot;font-size: 17px;&quot;&gt;Discount Amount&lt;/span&gt;&lt;/li&gt;&lt;li&gt;&lt;span style=&quot;font-size: 17px;&quot;&gt;Start date&lt;/span&gt;&lt;/li&gt;&lt;li&gt;&lt;span style=&quot;font-size: 17px;&quot;&gt;End date&lt;/span&gt;&lt;/li&gt;&lt;/ul&gt;&lt;p&gt;&lt;/p&gt;" style="text;html=1;whiteSpace=wrap;overflow=hidden;rounded=0;fillColor=default;strokeColor=default;" vertex="1" parent="1">
          <mxGeometry x="1020" y="280" width="210" height="240" as="geometry" />
        </mxCell>
        <mxCell id="jFWHGdrOQSLQcmm92h7n-6" value="&lt;h1 style=&quot;margin-top: 0px;&quot;&gt;Location&lt;/h1&gt;&lt;p&gt;&lt;span style=&quot;font-size: 17px;&quot;&gt;Rows&lt;/span&gt;&lt;br&gt;&lt;/p&gt;&lt;p&gt;&lt;/p&gt;&lt;ul&gt;&lt;li&gt;&lt;span style=&quot;font-size: 17px;&quot;&gt;Id&lt;/span&gt;&lt;/li&gt;&lt;li&gt;&lt;span style=&quot;font-size: 17px;&quot;&gt;Zip code&lt;/span&gt;&lt;/li&gt;&lt;li&gt;&lt;span style=&quot;font-size: 17px;&quot;&gt;City name&lt;/span&gt;&lt;/li&gt;&lt;li&gt;&lt;span style=&quot;font-size: 17px;&quot;&gt;State name&lt;/span&gt;&lt;/li&gt;&lt;/ul&gt;&lt;p&gt;&lt;/p&gt;" style="text;html=1;whiteSpace=wrap;overflow=hidden;rounded=0;fillColor=default;strokeColor=default;" vertex="1" parent="1">
          <mxGeometry x="1260" y="280" width="210" height="190" as="geometry" />
        </mxCell>
        <mxCell id="jFWHGdrOQSLQcmm92h7n-7" value="&lt;h1 style=&quot;margin-top: 0px;&quot;&gt;Sale Fact&lt;/h1&gt;&lt;p&gt;&lt;font style=&quot;font-size: 17px;&quot;&gt;Rows&lt;/font&gt;&lt;/p&gt;&lt;p&gt;&lt;/p&gt;&lt;ul&gt;&lt;li&gt;&lt;font style=&quot;font-size: 17px;&quot;&gt;Id&lt;/font&gt;&lt;/li&gt;&lt;li&gt;&lt;font style=&quot;font-size: 17px;&quot;&gt;Product Id&lt;/font&gt;&lt;/li&gt;&lt;li&gt;&lt;font style=&quot;font-size: 17px;&quot;&gt;Date Id&lt;/font&gt;&lt;/li&gt;&lt;li&gt;&lt;span style=&quot;font-size: 17px;&quot;&gt;Location Id&lt;/span&gt;&lt;/li&gt;&lt;li&gt;&lt;span style=&quot;font-size: 17px;&quot;&gt;Payment Method Id&lt;/span&gt;&lt;/li&gt;&lt;li&gt;&lt;span style=&quot;font-size: 17px;&quot;&gt;Discount Id&lt;/span&gt;&lt;/li&gt;&lt;li&gt;&lt;span style=&quot;font-size: 17px;&quot;&gt;Quantity&lt;/span&gt;&lt;/li&gt;&lt;li&gt;&lt;span style=&quot;font-size: 17px;&quot;&gt;Regular Unit Price&lt;/span&gt;&lt;/li&gt;&lt;li&gt;&lt;span style=&quot;font-size: 17px;&quot;&gt;Discount Unit Price&lt;/span&gt;&lt;/li&gt;&lt;li&gt;&lt;span style=&quot;font-size: 17px;&quot;&gt;Net Unit Price&lt;/span&gt;&lt;/li&gt;&lt;/ul&gt;&lt;p&gt;&lt;/p&gt;" style="text;html=1;whiteSpace=wrap;overflow=hidden;rounded=0;fillColor=default;strokeColor=default;" vertex="1" parent="1">
          <mxGeometry x="710" y="550" width="300" height="360" as="geometry" />
        </mxCell>
      </root>
    </mxGraphModel>
  </diagram>
</mxfile>
